<svg xmlns="http://www.w3.org/2000/svg" viewBox="0 0 1122.52 793.701" height="793.701" width="1122.52" xml:space="preserve">
  <defs>
    <clipPath id="a" clipPathUnits="userSpaceOnUse">
      <path d="M0 595.276h841.89V0H0Z"/>
    </clipPath>
  </defs>
  <g clip-path="url(#a)" transform="matrix(1.33333 0 0 -1.33333 0 793.701)">
    <path style="fill:#FFFFFF;fill-opacity:1;fill-rule:nonzero;stroke:none" d="M0 0c25.501 4.215 45.927 28.425 47.769 54.421 1.933 27.292-14.309 52.668-40.017 62.22-4.786 1.778-9.783 2.842-15.561 4.486 2.404 1.164 3.97 1.797 5.434 2.649 17.65 10.279 29.359 25.977 31.344 48.413 4.197 47.452-30.159 77.729-77.189 67.274 18.503-14.807 23.005-36.78 22.928-60.008-.077-23.158-4.598-45.052-23.861-58.926 24.126-7.334 32.358-28.156 34.255-52.538 2.182-28.047-3.428-53.343-27.551-70.534C-28.287-1.788-13.958-2.307 0 0m-450.745 102.134c-20.623-12.687-31.989-31.904-31.151-58.584.852-27.12 13.576-45.581 35.695-55.855 14.264-6.626 29.301-3.381 45.444-4.265-34.279 23.442-33.637 103.237-.968 123.077-21.795 5.033-30.89 23.27-34.178 44.996-4.745 31.356.188 59.77 27.641 79.019-11.776 0-22.546.129-33.311-.072-3.593-.068-7.205-.788-10.754-1.535-26.128-5.494-46.924-29.756-48.179-56.099-1.369-28.731 15.387-54.087 41.961-63.272 4.261-1.473 8.689-2.34 14.146-3.779-2.711-1.547-4.557-2.531-6.346-3.631m225.987-3.326c28.255 0 56.51-.078 84.764.093 3.77.023 7.765.639 11.251 2.151 7.183 3.116 8.176 8.313 3.31 15.172-4.883 6.883-11.486 9.262-19.189 9.249-56.992-.096-113.985-.058-170.977-.108-2.642-.002-5.344-.149-7.904-.795-1.475-.373-3.373-1.539-3.966-2.941-4.188-9.9 1.035-20.751 10.719-22.48 2.364-.422 4.815-.315 7.227-.317 28.255-.018 56.51-.012 84.765-.024m.416-81.434c6.318-12.99 15.968-19.298 27.059-23.169 17.802-6.213 35.655-6.066 53.345.603 18.865 7.111 25.032 19.734 20.691 42.185h-204.325c0-11.219-.491-22.018.265-32.706.265-3.742 2.921-8.118 5.637-10.659 15.894-14.867 34.723-18.307 54.473-14.84 20.07 3.523 36.915 12.732 42.855 38.586m101.453 169.616c2.84 29.489-.733 43.218-30.255 55.663-.226.095-.441.229-.672.303-18.047 5.8-35.824 5.268-53.028-3.544-12.378-6.34-21.363-16.256-23.495-29.711-6.657 5.614-12.969 13.145-20.733 17.063-21.209 10.703-43.071 10.154-64.805.879-6.59-2.811-10.397-8.489-11.196-15.678-.905-8.14-.209-16.504-.209-24.975zM-68.37-1.881h-48.165c.079-36.906-13.825-61.869-47.207-69.019-23.974-5.134-43.948 8.812-60.377 40.533-7.35-39.352-28.385-62.566-55.874-61.658-30.79 1.016-48.068 24.816-54.316 75.354h-48.08v247.002h43.364c1.377 34.795 15.557 58.655 46.324 64.471 28.956 5.474 48.862-10.994 61.267-40.198 8.368 40.378 29.695 63.32 57.112 61.829 29.973-1.63 47.683-26.486 53.174-75.505h52.778z" transform="translate(646.644 185.008)"/>
  </g>
</svg>
